<svg width="291" height="169" viewBox="0 0 291 169" fill="none" xmlns="http://www.w3.org/2000/svg">
<path d="M290.969 164.409C280.386 167.102 273.841 164.525 267.969 155.706C254.787 135.955 240.235 117.11 226.193 97.9159C224.383 95.4326 222.503 92.9957 220.159 89.9089C203.541 112.329 186.947 133.681 171.374 155.892C165.804 163.829 159.955 167.287 149.558 164.479L212.036 80.6254L153.874 4.89487C163.877 2.94533 170.794 3.94331 176.921 12.9019C190.452 32.6759 205.375 51.4982 220.252 71.4114C235.221 51.5679 249.959 32.7223 263.884 13.134C269.478 5.19659 275.489 2.17944 285.538 5.10375C277.926 15.1996 270.476 25.133 262.979 34.9968C252.86 48.2954 242.927 61.7566 232.436 74.7767C228.7 79.4185 229.303 82.4356 232.645 86.8221C252.048 112.329 271.218 138.09 290.969 164.409Z" fill="white"/>
<path d="M0.0696268 79.2329C1.74066 70.8545 2.85469 62.3136 5.17557 54.0977C19.1009 4.36114 76.1947 -16.3179 115.418 14.5034C138.394 32.5831 144.104 58.0664 142.967 86.799H13.4611C11.5116 138.346 48.6225 169.469 95.9222 153.594C112.517 148.024 122.287 135.027 127.184 118.781C129.668 110.634 133.776 109.358 141.435 111.679C137.512 132.01 128.623 148.999 110.056 159.628C82.2057 175.55 42.449 170.397 21.5378 148.279C9.1907 135.282 3.9455 119.106 1.62462 101.629C1.27649 98.8444 0.557012 96.1057 0 93.3439C0.0464177 88.6402 0.0696268 83.9366 0.0696268 79.2329ZM13.6932 75.7748H130.735C129.97 38.5014 106.761 12.0201 75.0342 11.788C40.2209 11.5095 15.2018 37.3641 13.6932 75.7748Z" fill="white"/>
</svg>
