<svg width="291" height="314" viewBox="0 0 291 314" fill="none" xmlns="http://www.w3.org/2000/svg">
<path d="M123.64 63.6666L71.6799 37.2332L14.6499 65.916L68.0204 92.9202L123.64 63.6666Z" fill="#4DABCF"/>
<path d="M147.468 75.7751L201.947 103.484L145.421 132.089L91.9717 105.04L147.468 75.7751Z" fill="#4DABCF"/>
<path d="M220.22 37.6362L276.187 65.9162L226.141 91.2417L171.539 63.4989L220.22 37.6362Z" fill="#4DABCF"/>
<path d="M196.139 25.4486L145.746 0L95.9116 25.0569L147.827 51.4456L196.139 25.4486Z" fill="#4DABCF"/>
<path d="M156.741 244.067V313.351L217.778 282.665L217.71 213.347L156.741 244.067Z" fill="#4DABCF"/>
<path d="M217.688 189.164L217.621 120.574L156.741 151.07V219.682L217.688 189.164Z" fill="#4DABCF"/>
<path d="M290.972 176.305V245.858L238.911 272.034L238.877 202.806L290.972 176.305Z" fill="#4DABCF"/>
<path d="M290.968 151.986V83.8324L238.806 109.964L238.851 178.688L290.968 151.986Z" fill="#4DABCF"/>
<path d="M135.189 151.081L94.0726 130.254V220.287C94.0726 220.287 43.7909 112.471 39.169 102.791C38.1867 101.526 36.9168 100.513 35.4647 99.8365C26.4223 95.125 0 81.5837 0 81.5837V240.61L36.5502 260.306V177.178C36.5502 177.178 86.2948 273.5 86.7984 274.541C89.3597 280.155 93.0469 285.183 97.6314 289.313C104.738 294.047 135.2 312.513 135.2 312.513L135.189 151.081Z" fill="#4D77CF"/>
</svg>
