<svg xmlns="http://www.w3.org/2000/svg" version="1.1" xmlns:xlink="http://www.w3.org/1999/xlink" xmlns:svgjs="http://svgjs.dev/svgjs" width="100%" height="100%" viewBox="0 0 1000 600"><rect width="1000" height="600" x="0" y="0" fill="#d8d9da"/><g><rect width="333.3333333333333" height="333.3333333333333" rx="13.333333333333334" ry="13.333333333333334" y="146.26238292270529" fill="#61677a" transform="matrix(1.007738212443976,0,0,1.0077382124439758,0,-15.350552173704955)" x="124.04014587402344"/><path d="M358.52940648398095 320.216454977395L358.52940648398095 320.216454977395Q357.154252642282 322.5817195851172 353.0837972708531 326.2396288040364Q349.0408449762582 329.9250410997896 344.3928249913157 332.67534878318753Q339.71730192953925 335.4531595434194 336.3619265557938 335.8657056959291L336.3619265557938 335.8657056959291Q338.14962655000244 343.7865918241151 341.20246807857416 349.6172441129186Q344.2828126839798 355.44789640172223 345.272923450003 361.3885609978617L345.272923450003 361.3885609978617Q345.6579665256787 361.99362868820924 346.45555575386413 363.58880714458L346.45555575386413 363.58880714458Q348.2432557480728 366.9441825183255 350.3334895874552 371.3996809654301Q352.3962203500036 375.8551794125347 353.49634342336276 380.2006655523034Q354.56896341988795 384.5736547689061 353.38633111602684 387.9290301426516L353.38633111602684 387.9290301426516Q351.59863112181824 386.5538763009526 350.22347728011925 386.5538763009526Q348.8483234384203 386.5538763009526 347.44566651988737 386.7463978387904L347.44566651988737 386.7463978387904Q345.6579665256787 386.9389193766283 343.8977696083041 386.5538763009526Q342.11006961409544 386.14133014844293 339.71730192953925 381.79584400867424L339.71730192953925 381.79584400867424Q338.53466962567813 379.430579400952 337.2420250144811 375.6626578746969Q335.9768834801181 371.89473634844177 334.68423886892106 367.9342932843487Q333.391594257724 363.97385022025577 332.0164404160251 361.3885609978617L332.0164404160251 361.3885609978617Q329.0461081179553 355.6679210163941 326.0757758198856 351.10241026195354Q323.10544352181586 346.536899507513 320.71267583725967 343.3740456716054L320.71267583725967 343.3740456716054Q319.33752199556073 343.56656720944324 317.05476661834047 344.2816472071267Q314.7720112411202 344.9692241279762 311.9942004808883 345.9593348939994L311.9942004808883 345.9593348939994Q306.2735604994207 347.7470348882081 300.22288359594523 349.4247225750808Q294.17220669246984 351.10241026195354 291.9994636225855 350.3048210337681L291.9994636225855 350.3048210337681Q291.00935285656226 350.497342571606 291.4218990090719 351.2949317997914L291.4218990090719 351.2949317997914Q291.6144205469098 351.8999994901389 291.00935285656226 351.8999994901389L291.00935285656226 351.8999994901389Q289.44167747702545 352.0925210279768 287.461455944979 351.10241026195354Q285.48123441293245 350.1122994959303 283.8860559565617 348.9296671920692L283.8860559565617 348.9296671920692Q282.098355962353 347.7470348882081 281.52079134883945 347.5270102735363L281.52079134883945 347.5270102735363Q281.1082451963298 346.94944566002266 279.9256128924687 345.54678874148976L279.9256128924687 345.54678874148976Q278.13791289826 343.56656720944324 276.35021290405143 340.89876875654727Q274.59001598667675 338.2309703036513 274.97505906235244 334.655570315234L274.97505906235244 334.655570315234Q278.55045905076975 331.6852380171643 281.52079134883945 326.2396288040364Q284.4911236469092 320.7940195909086 287.8464990206547 316.83357652681553L287.8464990206547 316.83357652681553Q290.21176362837684 314.2757903812555 293.97968515463197 311.1129365453479Q297.74760668088715 307.9225796326063 301.70804974498014 305.4473027175482Q305.6684928090731 302.9720258024901 308.63882510714285 302.39446118897655L308.63882510714285 302.39446118897655Q309.82145741100396 302.2019396511387 310.9215804843631 302.2844488816406Q311.9942004808883 302.39446118897655 313.2043358615834 302.58698272681437L313.2043358615834 302.58698272681437Q313.97442201293484 302.77950426465225 314.8820235484561 302.88951657198817Q315.76212200714343 302.9720258024901 316.55971123532885 302.9720258024901L316.55971123532885 302.9720258024901Q317.3573004635142 304.9522473345366 318.8424666125491 305.36479348704626Q320.32763276158397 305.749836562722 320.71267583725967 306.73994732874525L320.71267583725967 306.73994732874525Q321.5102650654451 310.70039039283824 323.38047429015563 313.17566730789633Q325.2781865917002 315.6509442229545 327.2584081237467 319.0338226735339L327.2584081237467 319.0338226735339Q332.20896195386297 318.6212765210242 335.4818280971065 315.0733796094409Q338.727191163516 311.4979796210236 340.7074126955625 309.32523655113926L340.7074126955625 309.32523655113926Q340.7074126955625 305.94235810055983 338.53466962567813 299.61665042874466Q336.3619265557938 293.2909427569295 333.0065511820483 285.7550997044192Q329.6236727314689 278.2192566519089 326.0757758198856 271.0959597519083Q322.5003758314683 263.9726628519077 319.6400558407345 258.8295874839537Q316.7522327731667 253.68651211599956 315.5696004693056 252.09133365962876L315.5696004693056 252.09133365962876Q309.6289358731661 259.4071520974672 302.58814820366746 269.11573821986184Q295.5748636110028 278.82432434225643 288.1490328658284 289.7155427685122Q280.72320212065404 300.6067611947679 273.9849482963292 311.6079919283596Q267.2466944720043 322.5817195851172 262.1036191040502 332.4828272453497L262.1036191040502 332.4828272453497Q257.53810834960973 341.20130260172107 251.899977598644 350.0022871885944Q246.26184684767827 358.83077485230166 241.11877147972416 366.14659329014006L241.11877147972416 366.14659329014006Q238.14843918165442 370.29955789207094 233.58292842721391 374.5625348013377Q229.04492074960734 378.8255117106045 222.88423153879603 379.430579400952L222.88423153879603 379.430579400952Q225.85456383686576 373.4899148048125 230.22755305346845 365.0739732936149Q234.57303919323715 356.6580317824173 239.44108379285143 348.43461180905757Q244.28162531563177 340.2111918356978 248.43458991756262 334.655570315234L248.43458991756262 334.655570315234Q248.62711145540047 333.8854841638826 251.32241298513043 328.82491802643045Q253.9902114380264 323.7643518889783 257.9506545021194 316.4485334511399Q261.91109756621233 309.13271501330144 266.17407447547913 301.59687196079113Q270.4095483079119 294.0610289082809 273.6824144511554 288.23037661947734Q276.9552805943989 282.39972433067373 278.3304344360979 280.6120243364651L278.3304344360979 280.6120243364651Q279.540569816793 278.82432434225643 282.59341134536464 274.97389358549935Q285.6737559507703 271.0959597519083 289.0291313245158 266.6404613048037Q292.41200977509516 262.18496285769913 294.8872866901533 258.334532100942Q297.36256360521145 254.45659826735096 297.55508514304927 252.47637673530448L297.55508514304927 252.47637673530448Q299.9203497507715 249.50604443723472 302.3131174353277 245.9581475256514Q304.67838204304985 242.38274753723414 307.8412358789575 240.2100044673498L307.8412358789575 240.2100044673498Q311.80167894305043 237.4321937071179 314.2769558581086 238.03726139746544Q316.7522327731667 238.61482601097902 318.5399327673753 239.60493677700225L318.5399327673753 239.60493677700225Q319.33752199556073 240.01748292951194 320.21762045424805 240.40252600518764Q321.12522198976933 240.81507215769733 321.8953081411208 240.81507215769733L321.8953081411208 240.81507215769733Q325.8557512052138 245.35307983530387 329.8161942693068 250.00109982024637Q333.7766373333998 254.6766228820228 336.9669942461413 260.01221978781473L336.9669942461413 260.01221978781473Q340.7074126955625 270.1058489858851 345.1629111426671 279.62191357044185Q349.6184095897717 289.11047507816465 353.38633111602684 299.0115827383971Q357.154252642282 308.9126903986296 358.52940648398095 320.216454977395ZM314.9645327789581 327.1472303395577L314.9645327789581 327.1472303395577Q314.1944466276067 324.17689804148796 312.70928047857177 321.70162112642987Q311.2241143295369 319.2263442113718 310.2340035635137 316.4485334511399L310.2340035635137 316.4485334511399Q303.3032282013509 319.8039088248853 297.85761898822307 324.86447496233745Q292.41200977509516 329.9250410997896 289.44167747702545 337.4333810754659L289.44167747702545 337.4333810754659Q291.00935285656226 339.0285595318367 293.40212054111845 338.1209579963154Q295.7673851488406 337.24085953762807 296.95001745270173 336.25074877160483L296.95001745270173 336.25074877160483Q297.55508514304927 337.4333810754659 298.43518360173664 337.13084723029215Q299.3427851372579 336.8558164619524 300.1128712886093 336.44327030944265L300.1128712886093 336.44327030944265Q300.9104605167947 336.05822723376696 301.3230066693044 335.8657056959291L301.3230066693044 335.8657056959291Q301.3230066693044 337.24085953762807 300.22288359594523 338.1209579963154Q299.1227605225861 339.0285595318367 297.940128218725 339.6061241453503L297.940128218725 339.6061241453503Q296.95001745270173 340.01867029785996 296.4549620696901 340.5137256808716Q295.9599066866785 341.0087810638832 296.95001745270173 341.8063702920686L296.95001745270173 341.8063702920686Q299.9203497507715 340.01867029785996 302.6981605110034 338.83603799399884Q305.47597127123527 337.62590261330377 307.6487143411196 336.6357918472805L307.6487143411196 336.6357918472805Q311.6091574052126 334.87559492990584 313.5893789372591 333.5829503187088Q315.5696004693056 332.29030570751183 314.5794897032823 330.3100841754653L314.5794897032823 330.3100841754653Q314.1944466276067 330.5026057133032 312.59926817123585 331.4927164793264L312.59926817123585 331.4927164793264Q311.004089714865 332.29030570751183 309.32640202799234 333.28041647353507Q307.6487143411196 334.2705272395583 307.0436466507721 334.0780057017205L307.0436466507721 334.0780057017205Q305.47597127123527 336.05822723376696 303.79828358436254 335.8657056959291Q302.09309282065584 335.64568108125724 302.09309282065584 333.66545954921077L302.09309282065584 333.66545954921077Q306.05353588474884 332.67534878318753 308.8313466449807 330.6126180206391Q311.6091574052126 328.52238418125665 314.9645327789581 327.1472303395577Z " fill="#d8d9da" transform="matrix(1.007738212443976,0,0,1.0077382124439758,0,-15.350552173704955)"/><path d="M661.0108504622889 310.90995016948347L661.0108504622889 310.90995016948347Q659.7912232026817 313.00770905600785 656.1811265142444 316.251917566563Q652.5954223709992 319.5205186223103 648.473082233527 321.9597731415247Q644.3263495508625 324.4234202059312 641.3504590374208 324.78930838381336L641.3504590374208 324.78930838381336Q642.9359744749103 331.81436139915087 645.6435469912382 336.98558097988536Q648.3755120527584 342.1568005606199 649.2536436796755 347.42559032212296L649.2536436796755 347.42559032212296Q649.5951393123655 347.96222631635015 650.3025231229377 349.3769939374945L650.3025231229377 349.3769939374945Q651.888038560427 352.3528844509361 653.74187199503 356.30447677206337Q655.5713128844408 360.2560690931907 656.5470146921266 364.11009123354944Q657.4983239546202 367.9885059191003 656.449444511358 370.9643964325419L656.449444511358 370.9643964325419Q654.8639290738687 369.7447691729347 653.6443018142614 369.7447691729347Q652.4246745546542 369.7447691729347 651.1806547498549 369.9155169892797L651.1806547498549 369.9155169892797Q649.5951393123655 370.0862648056247 648.0340164200683 369.7447691729347Q646.4485009825789 369.37888099505255 644.3263495508625 365.5248588546938L644.3263495508625 365.5248588546938Q643.2774701076003 363.42709996816944 642.1310204835695 360.0853212768457Q641.0089634047308 356.743542585522 639.8625137807 353.2310160778532Q638.7160641566693 349.7184895701845 637.4964368970622 347.42559032212296L637.4964368970622 347.42559032212296Q634.8620420163106 342.35194092215704 632.227647135559 338.3027784202611Q629.5932522548076 334.25361591836526 627.471100823091 331.44847322126867L627.471100823091 331.44847322126867Q626.2514735634837 331.61922103761367 624.2268923125358 332.25342721260944Q622.2023110615878 332.86324084241306 619.7386639971813 333.7413724693302L619.7386639971813 333.7413724693302Q614.6650145972154 335.3268879068196 609.2986546549437 336.81483316354036Q603.932294712672 338.3027784202611 602.0052836424927 337.595394609689L602.0052836424927 337.595394609689Q601.1271520155755 337.766142426034 601.4930401934577 338.4735262366061L601.4930401934577 338.4735262366061Q601.6637880098026 339.0101622308333 601.1271520155755 339.0101622308333L601.1271520155755 339.0101622308333Q599.7367769396233 339.1809100471783 597.9805136857889 338.3027784202611Q596.2242504319545 337.4246467933439 594.8094828108102 336.37576735008173L594.8094828108102 336.37576735008173Q593.2239673733209 335.3268879068196 592.7117239242858 335.13174754528245L592.7117239242858 335.13174754528245Q592.3458357464037 334.6195040962474 591.2969563031415 333.37548429144806L591.2969563031415 333.37548429144806Q589.7114408656521 331.61922103761367 588.1259254281628 329.2531441539757Q586.5648025358655 326.88706727033775 586.9062981685556 323.716036395359L586.9062981685556 323.716036395359Q590.0773290435343 321.0816415146075 592.7117239242858 316.251917566563Q595.3461188050373 311.4221936185185 598.3220093184789 307.90966711084974L598.3220093184789 307.90966711084974Q600.4197682050033 305.6411604079804 603.761546896327 302.8360177108838Q607.1033255876507 300.0064824685951 610.6158520953195 297.8111534013022Q614.1283786029883 295.61582433400923 616.7627734837397 295.1035808849742L616.7627734837397 295.1035808849742Q617.8116529270019 294.9328330686292 618.7873547346877 295.0060107042056Q619.7386639971813 295.1035808849742 620.8119359856357 295.2743287013192L620.8119359856357 295.2743287013192Q621.4949272510157 295.4450765176642 622.2998812423564 295.54264669843275Q623.0804426885051 295.61582433400923 623.7878264990773 295.61582433400923L623.7878264990773 295.61582433400923Q624.4952103096493 297.37208758784357 625.8124077500252 297.7379757657257Q627.129605190401 298.07947139841576 627.471100823091 298.95760302533296L627.471100823091 298.95760302533296Q628.1784846336632 302.4701295330016 629.8371777067289 304.6654586002946Q631.5202633249869 306.86078766758754 633.2765265788212 309.86107072622127L633.2765265788212 309.86107072622127Q637.6671847134071 309.49518254833913 640.5698975912723 306.34854421855255Q643.4482179239452 303.1775133435738 645.2044811777796 301.2505022733945L645.2044811777796 301.2505022733945Q645.2044811777796 298.25021921476076 643.2774701076003 292.63993382056765Q641.3504590374208 287.02964842637454 638.3745685239793 280.3460910437271Q635.3742854653456 273.66253366107964 632.227647135559 267.3448644563143Q629.0566162605803 261.0271952515491 626.5197915605974 256.46578930061816Q623.9585743154223 251.90438334968724 622.9096948721601 250.4896157285429L622.9096948721601 250.4896157285429Q617.640905110657 256.97803274965315 611.3964135414681 265.58860120248Q605.1763145174714 274.19916965530683 598.5903273155925 283.8586175513958Q592.0043401137136 293.51806544748484 586.0281665416384 303.2750835243424Q580.0519929695631 313.00770905600785 575.4905870186321 321.7890253251797L575.4905870186321 321.7890253251797Q571.4414245167363 329.52146215108934 566.4409527523468 337.32707661257535Q561.4404809879572 345.15708361925357 556.8790750370263 351.6455006403639L556.8790750370263 351.6455006403639Q554.2446801562749 355.3287749643776 550.1955176543788 359.10961946915995Q546.1707476976751 362.89046397394225 540.7068175746349 363.42709996816944L540.7068175746349 363.42709996816944Q543.3412124553864 358.15831020666633 547.2196271409373 350.69419137787025Q551.0736492812961 343.23007254907424 555.3911297803056 335.93670153662316Q559.684217734123 328.64333052417214 563.3674920581366 323.716036395359L563.3674920581366 323.716036395359Q563.5382398744816 323.03304512997903 565.9287093033117 318.54481681462454Q568.2947861869498 314.05658849927005 571.8073126946184 307.56817147815974Q575.3198392022872 301.07975445704943 579.1006837070695 294.396197074402Q582.8571356666596 287.71263969175453 585.7598485445249 282.54142011102005Q588.6625614223899 277.3702005302855 589.8821886819971 275.78468509279617L589.8821886819971 275.78468509279617Q590.9554606704514 274.19916965530683 593.6630331867794 270.7842133284067Q596.3949982482995 267.3448644563143 599.3708887617411 263.39327213518703Q602.3711718203748 259.44167981405974 604.5665008876678 256.02672348715953Q606.7618299549607 252.58737461506726 606.9325777713058 250.8311113612329L606.9325777713058 250.8311113612329Q609.03033665783 248.19671648048137 611.1524880895466 245.0500781506948Q613.250246976071 241.87904727571606 616.0553896731676 239.9520362055367L616.0553896731676 239.9520362055367Q619.5679161808363 237.48838914113014 621.7632452481294 238.02502513535734Q623.9585743154223 238.53726858439234 625.5440897529115 239.41540021130953L625.5440897529115 239.41540021130953Q626.2514735634837 239.78128838919167 627.0320350096324 240.1227840218817Q627.8369890009731 240.48867219976387 628.5199802663532 240.48867219976387L628.5199802663532 240.48867219976387Q632.0325067740218 244.5134421564676 635.5450332816906 248.63578229393994Q639.0575597893593 252.7825149766044 641.8870950316481 257.5146687438803L641.8870950316481 257.5146687438803Q645.2044811777796 266.4667328293972 649.156073498907 274.90655346587897Q653.1076658200343 283.32198155716867 656.449444511358 292.10329782634045Q659.7912232026817 300.8846140955123 661.0108504622889 310.90995016948347ZM622.3730588779329 317.0568715579038L622.3730588779329 317.0568715579038Q621.6900676125529 314.4224766771522 620.372870172177 312.22714760985923Q619.0556727318013 310.03181854256627 618.1775411048841 307.56817147815974L618.1775411048841 307.56817147815974Q612.0306197164639 310.5440619916013 607.2008957684193 315.0322903069558Q602.3711718203748 319.5205186223103 599.7367769396233 326.1796834597656L599.7367769396233 326.1796834597656Q601.1271520155755 327.59445108090995 603.249303447292 326.7894970895692Q605.3470623338164 326.00893564342056 606.3959417770786 325.1308040165034L606.3959417770786 325.1308040165034Q606.9325777713058 326.1796834597656 607.7131392174543 325.911365462652Q608.5180932087951 325.66744001073056 609.2010844741751 325.3015518328484L609.2010844741751 325.3015518328484Q609.9084682847473 324.96005620015836 610.2743564626295 324.78930838381336L610.2743564626295 324.78930838381336Q610.2743564626295 326.00893564342056 609.2986546549437 326.7894970895692Q608.322952847258 327.59445108090995 607.2740734039958 328.10669452994495L607.2740734039958 328.10669452994495Q606.3959417770786 328.47258270782714 605.95687596362 328.9116485212857Q605.5178101501614 329.3507143347443 606.3959417770786 330.0580981453165L606.3959417770786 330.0580981453165Q609.03033665783 328.47258270782714 611.4939837222366 327.42370326456495Q613.9576307866432 326.3504312761106 615.8846418568226 325.4722996491934L615.8846418568226 325.4722996491934Q619.3971683644913 323.91117675689617 621.1534316183256 322.7647271328654Q622.9096948721601 321.61827750883464 622.0315632452429 319.8620142550003L622.0315632452429 319.8620142550003Q621.6900676125529 320.0327620713453 620.2752999914085 320.9108936982625L620.2752999914085 320.9108936982625Q618.8605323702641 321.61827750883464 617.3725871135434 322.49640913575183Q615.8846418568226 323.374540762669 615.3480058625954 323.20379294632403L615.3480058625954 323.20379294632403Q613.9576307866432 324.96005620015836 612.4696855299225 324.78930838381336Q610.9573477280095 324.5941680222762 610.9573477280095 322.8379047684419L610.9573477280095 322.8379047684419Q614.4698742356782 321.9597731415247 616.9335213000847 320.1303322521139Q619.3971683644913 318.2764988175109 622.3730588779329 317.0568715579038ZM760.7763602981577 358.15831020666633L760.7763602981577 358.15831020666633Q759.7274808548956 357.7924220287842 759.3615926770134 358.4998058393563Q759.0200970443233 359.2071896499285 758.6786014116333 360.2560690931907L758.6786014116333 360.2560690931907Q758.3127132337512 361.4756963527979 757.7028996039476 362.4513981604837Q757.093085974144 363.42709996816944 755.6783183529996 362.54896834125225L755.6783183529996 362.54896834125225Q754.6294389097374 358.6705536557013 754.2879432770475 354.206717885539Q753.9220550991653 349.7184895701845 753.043923472248 345.6693270682886Q752.1657918453309 341.64455711158485 749.5313969645794 339.3516578635233L749.5313969645794 339.3516578635233Q746.0188704569106 343.23007254907424 741.4574645059797 346.91334687308796Q736.8960585550487 350.5966211971017 735.8471791117865 353.57251171054327L735.8471791117865 353.57251171054327Q734.4324114906423 354.2798955211154 732.9444662339214 354.9872793316876Q731.4565209772007 355.6946631422598 730.0417533560563 356.572794769177L730.0417533560563 356.572794769177Q725.1144592272432 359.0364418335835 719.9432396465087 361.1342007201079Q714.7720200657742 363.23195960663224 709.308089942734 362.54896834125225L709.308089942734 362.54896834125225Q704.405188359113 361.84158453068005 699.0388284168413 359.98775109607715Q693.6968610197617 358.15831020666633 690.6965779611281 354.2798955211154L690.6965779611281 354.2798955211154Q690.1843345120931 353.0602682615082 690.1843345120931 352.08456645382245Q690.1843345120931 351.1332571913288 688.7695668909488 350.4258733807567L688.7695668909488 350.4258733807567Q691.5747095880453 326.88706727033775 701.6732232975929 310.90995016948347Q711.7717370071405 294.9328330686292 728.626985734912 284.736749178313L728.626985734912 284.736749178313Q729.1636217291392 283.8586175513958 730.1393235368249 283.41955173793724Q731.0906327993185 282.9804859244786 731.4565209772007 281.9316064812165L731.4565209772007 281.9316064812165Q733.895775496415 283.5171219187058 736.9692361906252 284.20011318408586Q740.0426968848353 284.907496994658 743.042979943469 285.078244811003L743.042979943469 285.078244811003Q749.0191535155443 293.68881326382984 752.9707458366717 304.49471078394964Q756.9223381577989 315.3006083040694 760.7763602981577 326.1796834597656L760.7763602981577 326.1796834597656Q760.6056124818127 328.64333052417214 760.9471081145027 331.1801552241551Q761.3129962923848 333.7413724693302 761.8252397414199 336.37576735008173L761.8252397414199 336.37576735008173Q762.7033713683371 341.47380929523985 763.0692595462192 346.9865245086644Q763.4107551789092 352.5236322672811 760.7763602981577 358.15831020666633ZM747.2628902617099 325.66744001073056L747.2628902617099 325.66744001073056Q746.8970020838277 323.91117675689617 745.6773748242206 319.1546304444281Q744.4333550194212 314.4224766771522 742.4331663136654 308.9829390993041Q740.4085850627175 303.5190089762638 737.8473678175424 299.3966688387915Q735.3105431175594 295.2743287013192 732.5054004204628 295.1035808849742L732.5054004204628 295.1035808849742Q724.6022157782082 300.3723706464773 719.7724918301636 306.9583578483561Q714.9427678821193 313.544345050235 711.5034190100268 321.4475296924897Q708.0884626831267 329.3507143347443 703.8685523648859 338.8394144144883L703.8685523648859 338.8394144144883Q704.405188359113 339.3516578635233 704.405188359113 340.3273596712091Q704.405188359113 341.2786689337027 704.0393001812308 342.35194092215704L704.0393001812308 342.35194092215704Q703.8685523648859 343.40082036541924 703.7953747293094 344.44969980868143Q703.6978045485408 345.4985792519436 704.2344405427681 346.03521524617076L704.2344405427681 346.03521524617076Q710.1862215696511 347.62073068366016 715.4550113311542 345.9376450654022Q720.7238010926573 344.27895199233643 725.6510952214704 341.9860527442749L725.6510952214704 341.9860527442749Q728.8221260964491 340.4005373067855 731.7980166098906 339.2784802279469Q734.7739071233323 338.1320306039161 737.6034423656209 338.1320306039161L737.6034423656209 338.1320306039161Q737.774190181966 336.37576735008173 739.7012012521453 333.91212028567526Q741.6282123223247 331.44847322126867 743.9211115703862 329.0823963376307Q746.1896182732556 326.71631945399275 747.2628902617099 325.66744001073056ZM861.4200017609436 323.374540762669L861.4200017609436 323.374540762669Q860.1759819561444 326.00893564342056 857.7123348917378 327.42370326456495Q855.2730803725234 328.81407834051714 852.6386854917719 330.0580981453165Q850.0042906110203 331.2777254049237 848.248027357186 333.7413724693302L848.248027357186 333.7413724693302Q848.760270806221 334.25361591836526 848.248027357186 335.6683835395096Q847.7113913629588 337.0831511606539 847.0040075523866 339.1809100471783L847.0040075523866 339.1809100471783Q845.6136324764344 342.52268873850204 844.3696126716351 346.8157766923194Q843.1499854120278 351.1332571913288 844.19886485529 354.9872793316876L844.19886485529 354.9872793316876Q842.9792375956829 356.572794769177 842.6133494178007 359.98775109607715Q842.2718537851107 363.42709996816944 841.662040155307 366.50056066237954Q841.0278339803114 369.5740213565897 839.1008229101319 370.25701262196975L839.1008229101319 370.25701262196975Q837.3445596562975 370.7936486161969 837.1738118399526 371.4034622460005Q837.0030640236076 372.0132758758041 837.1738118399526 372.8914075027213L837.1738118399526 372.8914075027213Q837.5153074726426 373.9646794911756 837.0030640236076 375.08673657001424Q836.4664280293804 376.233186194045 832.2465177111395 377.2820656373072L832.2465177111395 377.2820656373072Q832.9539015217116 379.57496488536873 831.8074518976808 380.0140306988273Q830.6853948188423 380.45309651228587 828.7339912034707 380.45309651228587L828.7339912034707 380.45309651228587Q826.6362323169463 380.45309651228587 824.0994076169635 381.0629101420895Q821.5381903717883 381.6727237718931 819.611179301609 384.67300683052684L819.611179301609 384.67300683052684Q816.2694006102853 386.6000179007062 810.2932270382099 387.3074017112784Q804.3414460113269 388.0147855218505 798.2677022584829 387.91721534108194Q792.2183510508313 387.81964516031337 788.3399363652803 387.4781495276234L788.3399363652803 387.4781495276234Q785.5347936681839 385.551138457444 784.3151664085766 383.08749139303745Q783.0711466037773 380.6238443286309 780.6318920845629 379.9164605180587L780.6318920845629 379.9164605180587Q781.6807715278251 371.6717802431141 786.5104954758696 363.67102542009087Q791.340219423914 355.6946631422598 798.3652724392515 348.4988623105773Q805.3903254545891 341.2786689337027 813.1959399160751 335.4976357231646Q821.0259469227533 329.69220996743434 827.9534297573222 325.569869829962Q834.880912591891 321.4475296924897 839.4667110880141 319.5205186223103L839.4667110880141 319.5205186223103Q840.8570861639663 314.9347201261872 842.6133494178007 309.49518254833913Q844.3696126716351 304.055644970491 845.7843802927795 298.7868552089879L845.7843802927795 298.7868552089879Q846.6625119196966 295.8109646955464 846.9308299168102 292.63993382056765Q847.1747553687316 289.4689029455889 848.248027357186 286.8345080648374Q849.296906800448 284.20011318408586 852.1020494975447 282.9804859244786L852.1020494975447 282.9804859244786Q853.858312751379 287.37114405906453 853.858312751379 293.0789996340262Q853.858312751379 298.7868552089879 853.0777513052304 304.1532151512596Q852.2727973138898 309.49518254833913 851.5654135033175 313.17845687235285L851.5654135033175 313.17845687235285Q851.3946656869724 314.2517288608072 851.321488051396 315.0322903069558Q851.2239178706275 315.81285175310444 851.0531700542825 316.5202355636766L851.0531700542825 316.5202355636766Q853.3216767571519 318.6423869953931 856.4927076321306 320.5693980655725Q859.6637385071093 322.49640913575183 861.4200017609436 323.374540762669ZM836.1249323966904 337.2538989769989L836.1249323966904 337.2538989769989Q829.807263191925 339.71754604140546 822.4163219987055 345.4254016163672Q815.049773350678 351.1332571913288 808.6345339651442 358.6705536557013Q802.2192945796104 366.2322426652659 798.5360202555966 374.3061751238656L798.5360202555966 374.3061751238656Q801.1704151363481 375.5258023834728 803.2681740228725 375.2818769315514Q805.3903254545891 375.01355893443775 807.4880843411134 374.4769229402106L807.4880843411134 374.4769229402106Q809.0735997786027 374.1354273075206 810.5615450353235 373.7695391296384Q812.0494902920443 373.4280434969484 814.0008939074158 373.5987913132935L814.0008939074158 373.5987913132935Q817.1475322372024 371.33028461042403 820.4893109285262 369.3057033594761Q823.8310896198499 367.2811221085281 826.3679143198328 364.9150452248902Q828.9291315650079 362.54896834125225 829.270627197698 359.3779374662735L829.270627197698 359.3779374662735Q832.6124058890217 356.40204695283194 833.5637151515153 350.05998520287454Q834.539416959201 343.74231599810923 836.1249323966904 337.2538989769989ZM867.737670965709 254.00214223621163L867.737670965709 254.00214223621163Q868.7865504089713 257.34392092753535 867.8108486012853 261.0271952515491Q866.8595393387917 264.7104695755628 864.3958922743852 267.0033688236243L864.3958922743852 267.0033688236243Q861.5907495772886 269.8085115207209 859.1271025128822 269.54019352360734Q856.6634554484757 269.2718755264937 854.0290605677241 268.3937438995765L854.0290605677241 268.3937438995765Q852.8094333081168 267.8815004505415 851.321488051396 267.4424346370829Q849.8091502494832 267.0033688236243 848.248027357186 267.0033688236243L848.248027357186 267.0033688236243Q847.8821391793039 265.076357753445 847.0040075523866 263.4908423159556Q846.1258759254694 261.90532687846627 845.9551281091244 260.49055925732193L845.9551281091244 260.49055925732193Q845.6136324764344 256.099901122736 847.9797093600723 253.392328606408Q850.3457862437103 250.6603635448879 854.1998083840691 249.70905428239428Q858.0782230696199 248.7333524747085 861.7614973936337 249.9529797343157L861.7614973936337 249.9529797343157Q863.347012831123 250.8311113612329 864.2983220936168 252.41662679872226Q865.2740239013024 254.00214223621163 867.737670965709 254.00214223621163Z " fill="#61677a" transform="matrix(1.007738212443976,0,0,1.0077382124439758,0,-15.350552173704955)"/></g></svg>